<svg width="17" height="14" viewBox="0 0 17 14" fill="none" xmlns="http://www.w3.org/2000/svg">
<path d="M15 3.35938V1.67969L8.32031 5.85938L1.64062 1.67969V3.35938L8.32031 7.5L15 3.35938ZM15 0C15.4427 0 15.8203 0.169271 16.1328 0.507812C16.4714 0.846354 16.6406 1.23698 16.6406 1.67969V11.6797C16.6406 12.1224 16.4714 12.513 16.1328 12.8516C15.8203 13.1901 15.4427 13.3594 15 13.3594H1.64062C1.19792 13.3594 0.807292 13.1901 0.46875 12.8516C0.15625 12.513 0 12.1224 0 11.6797V1.67969C0 1.23698 0.15625 0.846354 0.46875 0.507812C0.807292 0.169271 1.19792 0 1.64062 0H15Z" fill="white"/>
</svg>
